PathFileType	4	(X/Y/Z)	Patient4_TMGait_0pt5_02_left_04.trc.trc
DataRate	CameraRate	NumFrames	NumMarkers	Units	OrigDataRate	OrigDataStartFrame	OrigNumFrames
75.675675675676	75.675675675676	4	33	mm	75.675675675676	124	       141
Frame#	Time	Sacral			L.Shoulder			Chest			R.Shoulder			Neck			R.ASIS			L.ASIS			R.Thigh.Superior			R.Thigh.Lateral			R.Thigh.Inferior			R.Patella			L.Thigh.Superior			L.Thigh.Lateral			L.Thigh.Inferior			L.Patella			L.Shank.Superior			L.Shank.Lateral			L.Shank.Inferior			R.Shank.Superior			R.Shank.Lateral			R.Shank.Inferior			R.Heel			R.Midfoot.Superior			R.Midfoot.Lateral			R.Toe			L.Heel			L.Midfoot.Lateral			L.Midfoot.Superior			L.Toe			L.Elbow			L.Wrist			R.Elbow			R.Wrist			
		X1	Y1	Z1	X2	Y2	Z2	X3	Y3	Z3	X4	Y4	Z4	X5	Y5	Z5	X6	Y6	Z6	X7	Y7	Z7	X8	Y8	Z8	X9	Y9	Z9	X10	Y10	Z10	X11	Y11	Z11	X12	Y12	Z12	X13	Y13	Z13	X14	Y14	Z14	X15	Y15	Z15	X16	Y16	Z16	X17	Y17	Z17	X18	Y18	Z18	X19	Y19	Z19	X20	Y20	Z20	X21	Y21	Z21	X22	Y22	Z22	X23	Y23	Z23	X24	Y24	Z24	X25	Y25	Z25	X26	Y26	Z26	X27	Y27	Z27	X28	Y28	Z28	X29	Y29	Z29	X30	Y30	Z30	X31	Y31	Z31	X32	Y32	Z32	X33	Y33	Z33	

124	6.065357142857	550.277827171209	1005.464090248802	519.117900418763	722.576334734192	1434.987791816312	340.043223588153	833.243261440505	1357.690072713444	491.713602060320	761.210891336627	1426.550372840619	673.354929599686	731.392800810906	1488.807601787876	493.780789684505	779.882757033644	935.968349229488	628.541708295191	757.155934922713	952.799097122152	354.252665037955	779.104358874397	724.327501669202	602.911373776488	672.045784527077	632.290406781104	661.574677413190	734.414748864029	565.066919992018	584.700813746779	715.531428409387	480.325774282682	587.590184660187	828.313523267667	763.140643095314	386.191160818154	771.664707516131	634.958972701895	313.147132317124	872.860616060290	575.390446390643	376.276733188467	897.008213361529	509.365672412554	375.973765102248	880.572990525899	437.281953431108	366.391468038885	813.781709344704	307.316977341241	317.742944937349	898.926298025275	208.880976919677	375.859020142439	678.074173649723	397.495159659211	592.804621610223	594.930222817547	301.488137913491	651.846787351110	628.456415163993	203.089738916420	587.811508070421	482.750611495619	43.318569030071	551.076778958971	653.276383234157	96.188171282288	591.241124227838	564.129211936173	35.994792248844	627.804395781452	772.252700631383	42.371679812107	622.189856940246	808.009368726204	37.484529753648	415.921126404399	882.005950605285	38.641338144305	335.589974521447	958.905885843887	108.138721407041	357.766754131870	1089.609203156768	68.247538166313	330.919773153913	601.430407041760	1108.797971300449	216.401666745427	634.600311930103	847.881801536274	202.096871170398	858.024642423554	1095.887748229790	772.056389294801	1077.346750335158	1170.126313437691	678.935366217430	
125	6.078571428571	551.679323799623	1004.434220338026	516.450952628408	721.768659182127	1434.067057824588	336.668653627889	832.942080190662	1357.814291082877	488.496056773971	760.496098662381	1426.633866242469	669.987494557076	730.308492904076	1488.283173272153	490.260248979626	781.331844603410	935.438646923041	626.155023549811	758.859375041918	951.935670436082	352.015085985637	779.711098272222	723.435545011390	601.183612828053	671.821350864571	631.954076166666	659.816158258898	733.835331622139	564.201170392224	583.226661030650	714.117246578211	479.143296093133	586.067425707683	829.583906305412	761.515524884544	384.323037416108	771.467333599323	633.510695822032	312.280556253068	872.779954164207	573.908099459086	375.189078534231	895.747511560203	507.101092762045	375.298440212624	879.021379950061	434.734149988319	365.747782551157	810.671030713148	305.277656219953	317.834803441649	894.666776229831	206.150619368058	376.313456015865	675.660922419951	396.696363219474	591.641409568526	591.306278439011	301.900604501983	651.112743890256	623.534125588028	202.869501975872	587.403078703028	476.182174517655	43.861954080433	551.280235594846	646.952280092881	96.254549775207	591.396234201966	557.599649110831	36.087593878071	627.868258683082	765.797922956370	41.858850794449	622.292325828104	800.818512611384	36.964798008985	416.608597614542	874.831619186312	37.172889163743	336.218754837380	953.317118024523	104.686412683088	359.128947482073	1083.347392342460	61.940608291413	332.068661716032	600.569635750017	1107.774869162521	213.876317848453	634.299141879537	846.731816341847	201.199654546777	860.536539057974	1097.279167262259	769.439434867038	1076.671424196430	1176.697751132497	673.760023032498	
126	6.091785714286	553.010399420934	1003.660069513439	513.707665067548	721.088058192649	1433.288043816014	333.187447000730	832.783163311644	1358.016460107999	485.128275726760	760.076918333428	1426.913115709776	666.483596519916	729.458571261829	1487.930022411509	486.603155353206	782.706369963180	935.023716816904	623.541217629068	760.408784423699	951.323529066256	349.553154083023	780.412175434077	722.702178486499	599.197028452515	671.928805665714	631.665342033112	657.893208278990	733.674439342093	563.436835107188	581.552225362769	713.216740569827	477.930272241403	584.442609695579	830.821139785617	760.401439498780	382.332422635537	771.562746190379	632.626399964814	311.176366757935	872.920085952712	572.959044094001	373.942605251925	894.615679047621	505.309084078776	374.455263067292	877.677767132414	432.661016217487	364.902408105933	807.932591068880	303.744587413106	317.462902327719	890.598701940192	203.933525345294	376.531148039956	673.645584044832	395.898632559978	590.410821989065	587.957094445430	302.449399329096	650.304567618911	618.825783526639	202.747586204472	587.008569047149	469.653501335153	44.681607944831	551.531762640595	640.775846908072	96.373684874707	591.617523501449	551.116307041229	36.278156143514	627.947960866272	759.388487427184	41.301742204784	622.406002454659	793.893575219658	36.704527506491	417.033081541636	867.983293815642	36.124582819950	336.647308591638	947.781986199381	101.922469358201	360.290489503616	1077.251258763148	56.773851076481	333.185950372483	600.192244258738	1106.672266463266	211.291442725439	634.443305636167	845.535202766020	200.029351772728	862.680890216932	1098.709374398956	766.979992971478	1076.176554856234	1182.094863604452	669.128057764453	
127	6.105000000000	554.222816369401	1003.191819460633	510.902568223711	720.530582449667	1432.703270194187	329.630268701390	832.758146893253	1358.312434077231	481.625617439078	759.977288715050	1427.418716118652	662.863991023115	728.857255620790	1487.785814868207	482.845717655098	783.950086354792	934.782444299235	620.713883614581	761.760048779659	950.997788622470	346.854180567099	781.161632643836	722.183329821597	596.959346529243	672.360352073334	631.454650092598	655.830904773566	733.953486477721	562.810290391698	579.706453072349	712.902556860839	476.698952017673	582.803244636892	832.036826082096	759.891942823233	380.210534684465	771.979203617931	632.337185402636	309.816606576393	873.280799652652	572.551350103964	372.488775023407	893.635796487157	504.011822860935	373.398925727258	876.522509555904	431.080377635617	363.859640333971	805.518472600675	302.747116360266	316.614493238273	886.659051602117	202.247290083391	376.498762984134	672.067998755272	395.132186712378	589.165423301819	584.900049373557	303.178821048532	649.440769721977	614.365938418092	202.768689464759	586.656633494792	463.187999387790	45.869020462056	551.830541825382	634.780017948399	96.548384756115	591.901089533495	544.690968789421	36.615957984194	628.040526465264	753.020305593024	40.705817195589	622.523241006346	787.237029971664	36.651515174875	417.221645063422	861.429959394009	35.457526987002	336.871097835292	942.235708283496	99.879118850358	361.174959244931	1071.271600176319	52.867037239370	334.142502654524	600.310752246414	1105.544464962295	208.652507057458	635.047932909517	844.349824167923	198.570080711570	864.380740345554	1100.153785070911	764.637049297351	1075.907745811311	1186.249485885827	665.055004925237	
